<svg version="1.2" xmlns="http://www.w3.org/2000/svg" viewBox="0 0 512 512" width="512" height="512">
	<title>454406-PF8Y13-362-ai</title>
	<style>
		.s0 { fill: #1d262d } 
	</style>
	<g id="OBJECTS">
		<g id="&lt;Group&gt;">
			<path id="&lt;Compound Path&gt;" fill-rule="evenodd" class="s0" d="m319.4 400c-14.5 5.9-29.8 9.8-45.6 11.5q-0.4 0.1-0.9 0.1-3.4 0.3-6.9 0.5-0.7 0.1-1.5 0.2c-1 0-2 0-2.9 0-3.8 0.3-7.6 0.5-11.6 0.6q0 0-0.1 0c-1.1 0-2.3-0.3-3.3-0.7q-0.3 0-0.6-0.1-3.5-0.2-6.9-0.5-0.5 0-0.9-0.1c-37.6-4-72.6-20.5-99.8-47.5l-6.1-6.1 0.2-0.3c-26.9-29.6-43.3-68.9-43.3-111.9 0-43.1 16.4-82.4 43.3-112l-0.2-0.2 6.1-6.1c27.2-27.1 62.2-43.6 99.8-47.6q0.4 0 0.9-0.1 3.4-0.3 6.9-0.5 0.3 0 0.6-0.1c1.1-0.4 2.2-0.7 3.4-0.7 4 0.1 7.8 0.3 11.6 0.6 0.9 0 1.9 0 2.9 0.1q0.8 0 1.5 0.1 3.5 0.2 6.9 0.5 0.5 0.1 0.9 0.1c37.6 4 72.6 20.5 99.8 47.6l6.1 6.1-0.2 0.2c26.9 29.6 43.3 68.9 43.3 112 0 35.8-11.4 69-30.6 96.2l-13.4-11c15.4-22 24.9-48.3 26.5-76.6h-45.5c-0.7 18.4-4 36.3-9.4 53.2l-15.2-12.5c3.6-13 5.8-26.7 6.5-40.7h-76.6v49.2c14.8 0.8 29.2 3.6 43.1 8.1l2.4 19.2c-14.4-5.7-29.7-9.1-45.5-10v70.8c18.9-11.8 34.9-27.7 47.3-46.3l3.3 25.9c-5.3 6.3-11 12.3-17.2 17.9 6.4-1.9 12.6-4.3 18.6-7zm47.8-254.4c-7.6 6.8-15.8 12.9-24.3 18.1 10 22.5 15.9 47.4 17 73.4h45.5c-2-35.1-16.1-66.9-38.2-91.5zm-68.7-43.3c14.6 13 26.9 28.6 36.6 45.9 7-4.3 13.6-9.2 19.8-14.7-16.1-14.2-35.3-25-56.4-31.2zm-33.4 68.3c19-1.2 37.2-5.8 54.1-13.7-13.2-23.4-31.6-43.2-54.1-57.1zm0 66.4h76.6c-1.1-22.9-6.2-44.8-14.8-64.6-19.3 9-40.1 14.2-61.8 15.4zm-107.9-103.5c6.2 5.5 12.8 10.3 19.7 14.7 9.7-17.4 22-32.9 36.6-46-21.1 6.3-40.2 17.1-56.3 31.3zm-50.5 103.5h45.5c1.1-26 6.9-50.9 16.9-73.4-8.5-5.2-16.6-11.2-24.2-18-22.1 24.5-36.2 56.4-38.2 91.4zm38.2 108.6c7.6-6.8 15.7-12.8 24.2-18-10-22.5-15.8-47.4-16.9-73.4h-45.5c2 35.1 16.1 66.9 38.2 91.4zm68.6 43.4c-14.6-13.1-26.9-28.6-36.6-45.9-6.9 4.3-13.5 9.2-19.7 14.6 16.1 14.2 35.2 25 56.3 31.3zm33.5-68.3c-19 1.1-37.3 5.8-54.2 13.7 13.2 23.4 31.6 43.2 54.2 57.1zm0-66.5h-76.6c1 23 6.1 44.9 14.8 64.7 19.2-9 40.1-14.3 61.8-15.4zm0-66.5c-21.7-1.1-42.6-6.4-61.8-15.4-8.7 19.8-13.8 41.7-14.8 64.7h76.6zm0-88.1c-22.6 14-41 33.7-54.2 57.1 16.9 7.9 35.2 12.6 54.2 13.7z"/>
		</g>
		<path id="&lt;Path&gt;" class="s0" d="m377.6 379.1l23.3 42.3-21 11.6-23.4-42.3-25 13.8-13.8-109.1 84.9 69.9z"/>
	</g>
</svg>